<svg width="162" height="162" viewBox="0 0 162 162" fill="none" xmlns="http://www.w3.org/2000/svg">
<path d="M80.9621 161C125.124 161 160.924 125.183 160.924 81C160.924 36.8172 125.124 1 80.9621 1C36.8002 1 1 36.8172 1 81C1 125.183 36.8002 161 80.9621 161Z" fill="white" stroke="#808285" stroke-width="0.25" stroke-miterlimit="10"/>
<path d="M125.24 65.1546C124.323 64.3027 123.864 63.2542 123.864 61.996C123.864 60.7379 124.323 59.6894 125.24 58.8375C126.157 57.9856 127.349 57.5662 128.803 57.5662C130.257 57.5662 131.449 57.9725 132.366 58.785C133.283 59.5976 133.742 60.6199 133.742 61.8388C133.742 63.1625 133.283 64.2634 132.366 65.1284C131.449 65.9934 130.257 66.4259 128.803 66.4259C127.349 66.439 126.157 66.0065 125.24 65.1546ZM124.834 70.266H132.785V97.6972H124.834V70.266Z" fill="#812C19"/>
<path d="M58.5087 70.3972V93.2543C58.5087 98.2871 57.1987 102.035 54.5787 104.473C51.9587 106.924 48.1335 108.143 43.1032 108.143C40.457 108.143 37.9418 107.815 35.5576 107.173C33.1734 106.531 31.2084 105.587 29.6495 104.368L32.8066 98.6541C33.9594 99.6108 35.4266 100.358 37.1951 100.921C38.9636 101.485 40.7321 101.76 42.5006 101.76C45.2516 101.76 47.2821 101.144 48.592 99.8991C49.902 98.6541 50.557 96.7799 50.557 94.2635V93.0839C48.4872 95.3775 45.5922 96.5178 41.898 96.5178C39.3828 96.5178 37.0772 95.9673 34.9943 94.8664C32.8983 93.7655 31.2477 92.2058 30.0294 90.2006C28.8111 88.1953 28.1954 85.8755 28.1954 83.2674C28.1954 80.6593 28.8111 78.3395 30.0294 76.3343C31.2477 74.329 32.9114 72.7694 34.9943 71.6685C37.0772 70.5676 39.3828 70.0171 41.898 70.0171C45.8804 70.0171 48.8933 71.3277 50.9762 73.9489V70.4234H58.5087V70.3972ZM48.6444 88.1167C49.9806 86.8716 50.6618 85.2465 50.6618 83.2412C50.6618 81.236 49.9937 79.6108 48.6444 78.3657C47.2952 77.1206 45.5791 76.5046 43.47 76.5046C41.3609 76.5046 39.6317 77.1206 38.2693 78.3657C36.9069 79.6108 36.2257 81.236 36.2257 83.2412C36.2257 85.2465 36.9069 86.8716 38.2693 88.1167C39.6317 89.3618 41.3609 89.9778 43.47 89.9778C45.5791 89.9778 47.3083 89.3618 48.6444 88.1167Z" fill="#812C19"/>
<path d="M87.9574 73.0184C90.2367 75.0367 91.3764 78.0905 91.3764 82.1796V97.8414H83.9357V94.4207C82.4423 96.9764 79.652 98.2477 75.5779 98.2477C73.4688 98.2477 71.6479 97.8939 70.1021 97.173C68.5563 96.4653 67.3773 95.4692 66.5652 94.211C65.753 92.9528 65.3469 91.5243 65.3469 89.9253C65.3469 87.3696 66.3032 85.3644 68.2288 83.9096C70.1545 82.4417 73.1151 81.7209 77.1237 81.7209H83.451C83.451 79.9908 82.927 78.654 81.8659 77.7235C80.8179 76.7929 79.2328 76.3211 77.1237 76.3211C75.6565 76.3211 74.2286 76.5439 72.8138 77.0157C71.399 77.4745 70.2069 78.0905 69.2244 78.8768L66.3425 73.3067C67.8358 72.2582 69.6305 71.4325 71.7265 70.8559C73.8225 70.2792 75.9709 69.9908 78.1717 69.9908C82.4161 69.9908 85.678 71 87.9574 73.0184ZM81.1716 91.9437C82.2196 91.3146 82.9794 90.384 83.4117 89.1652V86.3604H77.9621C74.7002 86.3604 73.0627 87.4351 73.0627 89.5714C73.0627 90.5937 73.4557 91.4063 74.2548 91.9961C75.0539 92.5859 76.1543 92.8873 77.5429 92.8873C78.9184 92.8873 80.1236 92.5859 81.1716 91.9437Z" fill="#812C19"/>
<path d="M100.127 83.6344C99.9308 82.9529 99.826 82.232 99.826 81.5112C99.826 78.3264 101.804 75.4693 104.765 74.329V59.755L106.887 58.1822L97.8086 51.1967V51.3015V97.8022L104.765 95.9673V91.8258L100.743 85.1547C100.481 84.6567 100.271 84.1586 100.127 83.6344Z" fill="#812C19"/>
<path d="M108.551 50.9213L110.516 52.4416L110.529 74.6828C111.839 75.2332 112.939 76.1244 113.738 77.2254C114.655 78.4836 115.192 80.0301 115.192 81.6684C115.192 82.3761 115.087 83.0969 114.891 83.7784C114.734 84.3027 114.537 84.8007 114.275 85.2725L114.262 85.2988L110.542 91.4062V95.9541L117.825 97.6972V44.093V44.0668L108.551 50.9213Z" fill="#812C19"/>
<path d="M110.529 75.9278C110.201 75.7574 109.874 75.6002 109.52 75.4822C108.878 75.2725 108.197 75.1545 107.516 75.1545C106.795 75.1545 106.088 75.2725 105.42 75.5084C105.197 75.587 104.987 75.6788 104.778 75.7836C102.603 76.8321 101.175 79.0471 101.175 81.511C101.175 82.1139 101.254 82.7037 101.424 83.2673C101.542 83.6866 101.712 84.106 101.922 84.4992L104.778 89.2306L107.529 93.7784L110.555 88.7587L113.136 84.4992C113.345 84.1192 113.515 83.6998 113.633 83.2673C113.791 82.7037 113.882 82.1139 113.882 81.511C113.856 79.1388 112.559 77.0156 110.529 75.9278ZM109.153 83.857C108.682 84.1847 108.118 84.3682 107.516 84.3682C106.874 84.3682 106.284 84.1585 105.813 83.8177C105.328 83.4638 104.961 82.9658 104.765 82.3891C104.673 82.1008 104.621 81.7863 104.621 81.4717C104.621 81.1441 104.673 80.8426 104.765 80.5543C104.961 79.9776 105.328 79.4796 105.813 79.1257C106.297 78.7718 106.874 78.5752 107.516 78.5752C108.118 78.5752 108.682 78.7587 109.14 79.0733C109.913 79.5975 110.411 80.4756 110.411 81.4717C110.411 82.4547 109.913 83.3328 109.153 83.857Z" fill="#E37547"/>
<path d="M66.3294 110.921V117.75H65.098V107.514H66.9189L69.6437 114.617C69.7354 114.906 69.8402 115.207 69.9188 115.535C70.0105 115.862 70.0629 116.098 70.1022 116.242C70.1284 116.111 70.1808 115.928 70.2463 115.705C70.3118 115.469 70.3773 115.246 70.4559 115.037C70.5214 114.827 70.5738 114.683 70.6 114.617L73.2724 107.514H75.054V117.75H73.8095V110.921C73.8095 110.541 73.8095 110.174 73.8226 109.807C73.8357 109.44 73.8488 109.086 73.875 108.733C73.7571 109.165 73.6392 109.545 73.5344 109.886C73.4296 110.227 73.3248 110.515 73.2331 110.764L70.5869 117.736H69.6175L66.932 110.764L66.2901 108.733C66.3032 109.1 66.3163 109.453 66.3163 109.82C66.3294 110.187 66.3294 110.554 66.3294 110.921Z" fill="#812C19"/>
<path d="M87.1976 114.748L86.0186 117.737H84.5776L88.7565 107.501H90.3284L94.4418 117.737H93.027L91.8611 114.748H87.1976ZM89.5294 108.549C89.4508 108.824 89.346 109.126 89.2412 109.453C89.1233 109.781 89.0185 110.083 88.9268 110.332L87.6299 113.674H91.455L90.145 110.292C90.0795 110.122 89.9879 109.886 89.8831 109.571C89.7521 109.257 89.6473 108.916 89.5294 108.549Z" fill="#812C19"/>
<path d="M112.913 110.594C112.913 111.236 112.769 111.799 112.48 112.271C112.192 112.743 111.786 113.11 111.262 113.372C110.738 113.634 110.109 113.765 109.389 113.765H106.376V117.75H104.987V107.514H109.297C110.45 107.514 111.328 107.789 111.97 108.326C112.598 108.851 112.913 109.611 112.913 110.594ZM111.524 110.607C111.524 109.283 110.725 108.628 109.14 108.628H106.389V112.664H109.205C109.978 112.664 110.568 112.494 110.948 112.153C111.328 111.812 111.524 111.288 111.524 110.607Z" fill="#812C19"/>
<path d="M132.681 114.958C132.681 115.902 132.314 116.636 131.567 117.147C130.834 117.671 129.786 117.92 128.449 117.92C125.96 117.92 124.506 117.055 124.113 115.312L125.463 115.037C125.62 115.653 125.947 116.098 126.445 116.387C126.943 116.675 127.637 116.819 128.502 116.819C129.393 116.819 130.087 116.662 130.572 116.36C131.056 116.046 131.305 115.6 131.305 115.01C131.305 114.67 131.227 114.408 131.082 114.198C130.925 113.988 130.716 113.818 130.441 113.687C130.165 113.556 129.838 113.438 129.458 113.346C129.078 113.254 128.646 113.149 128.187 113.045C127.65 112.927 127.205 112.809 126.838 112.691C126.471 112.573 126.183 112.455 125.947 112.324C125.711 112.193 125.515 112.062 125.345 111.917C125.109 111.695 124.912 111.432 124.794 111.144C124.663 110.843 124.598 110.515 124.598 110.122C124.598 109.244 124.939 108.575 125.607 108.09C126.275 107.619 127.244 107.383 128.489 107.383C129.655 107.383 130.545 107.566 131.161 107.92C131.777 108.274 132.209 108.877 132.458 109.742L131.096 109.978C130.951 109.44 130.663 109.047 130.244 108.798C129.825 108.549 129.235 108.431 128.489 108.431C127.676 108.431 127.048 108.562 126.615 108.837C126.183 109.113 125.973 109.519 125.973 110.056C125.973 110.371 126.052 110.633 126.222 110.843C126.393 111.052 126.628 111.223 126.943 111.367C127.244 111.511 127.86 111.682 128.829 111.891C129.222 111.983 129.615 112.075 129.995 112.18C130.375 112.284 130.742 112.402 131.082 112.56C131.279 112.638 131.475 112.743 131.659 112.861C131.842 112.979 131.999 113.123 132.13 113.267C132.314 113.477 132.458 113.713 132.563 113.988C132.628 114.263 132.681 114.591 132.681 114.958Z" fill="#812C19"/>
</svg>